<mxfile host="app.diagrams.net" agent="Mozilla/5.0 (Windows NT 10.0; Win64; x64) AppleWebKit/537.36 (KHTML, like Gecko) Chrome/127.0.0.0 Safari/537.36" version="24.7.7">
  <diagram name="Page-1" id="Q9l8EDt0E38q-BH_5aCW">
    <mxGraphModel dx="819" dy="518" grid="1" gridSize="10" guides="1" tooltips="1" connect="1" arrows="1" fold="1" page="1" pageScale="1" pageWidth="10000" pageHeight="10000" math="0" shadow="0">
      <root>
        <mxCell id="0" />
        <mxCell id="1" parent="0" />
        <mxCell id="dJpMslKiDyshbMu2dqWY-9" value="" style="rounded=0;whiteSpace=wrap;html=1;movable=1;resizable=1;rotatable=1;deletable=1;editable=1;locked=0;connectable=1;fillColor=none;" vertex="1" parent="1">
          <mxGeometry x="200" y="200" width="720" height="720" as="geometry" />
        </mxCell>
        <mxCell id="dJpMslKiDyshbMu2dqWY-41" value="Project" style="swimlane;whiteSpace=wrap;html=1;startSize=40;" vertex="1" parent="1">
          <mxGeometry x="240" y="240" width="480" height="200" as="geometry" />
        </mxCell>
        <mxCell id="dJpMslKiDyshbMu2dqWY-27" value="Urls" style="swimlane;fontStyle=0;childLayout=stackLayout;horizontal=1;startSize=40;horizontalStack=0;resizeParent=1;resizeParentMax=0;resizeLast=0;collapsible=1;marginBottom=0;whiteSpace=wrap;html=1;" vertex="1" parent="dJpMslKiDyshbMu2dqWY-41">
          <mxGeometry y="40" width="200" height="160" as="geometry">
            <mxRectangle x="210" y="210" width="60" height="30" as="alternateBounds" />
          </mxGeometry>
        </mxCell>
        <mxCell id="dJpMslKiDyshbMu2dqWY-28" value="Path(&#39;admin/&#39;) =&amp;gt; admin" style="text;strokeColor=none;fillColor=none;align=left;verticalAlign=middle;spacingLeft=4;spacingRight=4;overflow=hidden;points=[[0,0.5],[1,0.5]];portConstraint=eastwest;rotatable=0;whiteSpace=wrap;html=1;" vertex="1" parent="dJpMslKiDyshbMu2dqWY-27">
          <mxGeometry y="40" width="200" height="30" as="geometry" />
        </mxCell>
        <mxCell id="dJpMslKiDyshbMu2dqWY-29" value="Path(&#39;&#39;) =&amp;gt; dashboard.urls" style="text;strokeColor=none;fillColor=none;align=left;verticalAlign=middle;spacingLeft=4;spacingRight=4;overflow=hidden;points=[[0,0.5],[1,0.5]];portConstraint=eastwest;rotatable=0;whiteSpace=wrap;html=1;" vertex="1" parent="dJpMslKiDyshbMu2dqWY-27">
          <mxGeometry y="70" width="200" height="30" as="geometry" />
        </mxCell>
        <mxCell id="dJpMslKiDyshbMu2dqWY-30" value="Path(&#39;&#39;) =&amp;gt; auth.urls" style="text;strokeColor=none;fillColor=none;align=left;verticalAlign=middle;spacingLeft=4;spacingRight=4;overflow=hidden;points=[[0,0.5],[1,0.5]];portConstraint=eastwest;rotatable=0;whiteSpace=wrap;html=1;" vertex="1" parent="dJpMslKiDyshbMu2dqWY-27">
          <mxGeometry y="100" width="200" height="30" as="geometry" />
        </mxCell>
        <mxCell id="dJpMslKiDyshbMu2dqWY-31" value="Path(&#39;stripe&#39;) =&amp;gt; stripeApi.url" style="text;strokeColor=none;fillColor=none;align=left;verticalAlign=middle;spacingLeft=4;spacingRight=4;overflow=hidden;points=[[0,0.5],[1,0.5]];portConstraint=eastwest;rotatable=0;whiteSpace=wrap;html=1;" vertex="1" parent="dJpMslKiDyshbMu2dqWY-27">
          <mxGeometry y="130" width="200" height="30" as="geometry" />
        </mxCell>
        <mxCell id="dJpMslKiDyshbMu2dqWY-36" value="Views" style="swimlane;fontStyle=0;childLayout=stackLayout;horizontal=1;startSize=30;horizontalStack=0;resizeParent=1;resizeParentMax=0;resizeLast=0;collapsible=1;marginBottom=0;whiteSpace=wrap;html=1;" vertex="1" parent="dJpMslKiDyshbMu2dqWY-41">
          <mxGeometry x="240" y="40" width="200" height="60" as="geometry">
            <mxRectangle x="210" y="210" width="60" height="30" as="alternateBounds" />
          </mxGeometry>
        </mxCell>
        <mxCell id="dJpMslKiDyshbMu2dqWY-37" value="Class&amp;nbsp;SystemView(TemplateView)" style="text;strokeColor=none;fillColor=none;align=left;verticalAlign=middle;spacingLeft=4;spacingRight=4;overflow=hidden;points=[[0,0.5],[1,0.5]];portConstraint=eastwest;rotatable=0;whiteSpace=wrap;html=1;" vertex="1" parent="dJpMslKiDyshbMu2dqWY-36">
          <mxGeometry y="30" width="200" height="30" as="geometry" />
        </mxCell>
        <mxCell id="dJpMslKiDyshbMu2dqWY-42" value="Dashboards" style="swimlane;whiteSpace=wrap;html=1;startSize=40;" vertex="1" parent="1">
          <mxGeometry x="240" y="480" width="600" height="240" as="geometry" />
        </mxCell>
        <mxCell id="dJpMslKiDyshbMu2dqWY-43" value="Urls" style="swimlane;fontStyle=0;childLayout=stackLayout;horizontal=1;startSize=40;horizontalStack=0;resizeParent=1;resizeParentMax=0;resizeLast=0;collapsible=1;marginBottom=0;whiteSpace=wrap;html=1;" vertex="1" parent="dJpMslKiDyshbMu2dqWY-42">
          <mxGeometry y="40" width="280" height="190" as="geometry">
            <mxRectangle x="210" y="210" width="60" height="30" as="alternateBounds" />
          </mxGeometry>
        </mxCell>
        <mxCell id="dJpMslKiDyshbMu2dqWY-44" value="Path(&#39;&#39;) =&amp;gt; DashboardView(&#39;index&#39;)" style="text;strokeColor=none;fillColor=none;align=left;verticalAlign=middle;spacingLeft=4;spacingRight=4;overflow=hidden;points=[[0,0.5],[1,0.5]];portConstraint=eastwest;rotatable=0;whiteSpace=wrap;html=1;" vertex="1" parent="dJpMslKiDyshbMu2dqWY-43">
          <mxGeometry y="40" width="280" height="30" as="geometry" />
        </mxCell>
        <mxCell id="dJpMslKiDyshbMu2dqWY-45" value="Path(&#39;profile/&#39;) =&amp;gt; DashboardView(&#39;profile&#39;)" style="text;strokeColor=none;fillColor=none;align=left;verticalAlign=middle;spacingLeft=4;spacingRight=4;overflow=hidden;points=[[0,0.5],[1,0.5]];portConstraint=eastwest;rotatable=0;whiteSpace=wrap;html=1;" vertex="1" parent="dJpMslKiDyshbMu2dqWY-43">
          <mxGeometry y="70" width="280" height="30" as="geometry" />
        </mxCell>
        <mxCell id="dJpMslKiDyshbMu2dqWY-46" value="Path(&#39;user/&#39;) =&amp;gt; DashboardView(&#39;user&#39;)" style="text;strokeColor=none;fillColor=none;align=left;verticalAlign=middle;spacingLeft=4;spacingRight=4;overflow=hidden;points=[[0,0.5],[1,0.5]];portConstraint=eastwest;rotatable=0;whiteSpace=wrap;html=1;" vertex="1" parent="dJpMslKiDyshbMu2dqWY-43">
          <mxGeometry y="100" width="280" height="30" as="geometry" />
        </mxCell>
        <mxCell id="dJpMslKiDyshbMu2dqWY-53" value="Path(&#39;plan/&#39;) =&amp;gt; DashboardView(&#39;plan&#39;)" style="text;strokeColor=none;fillColor=none;align=left;verticalAlign=middle;spacingLeft=4;spacingRight=4;overflow=hidden;points=[[0,0.5],[1,0.5]];portConstraint=eastwest;rotatable=0;whiteSpace=wrap;html=1;" vertex="1" parent="dJpMslKiDyshbMu2dqWY-43">
          <mxGeometry y="130" width="280" height="30" as="geometry" />
        </mxCell>
        <mxCell id="dJpMslKiDyshbMu2dqWY-47" value="Path(&#39;error/&#39;) =&amp;gt; DashboardView(&#39;error&#39;)" style="text;strokeColor=none;fillColor=none;align=left;verticalAlign=middle;spacingLeft=4;spacingRight=4;overflow=hidden;points=[[0,0.5],[1,0.5]];portConstraint=eastwest;rotatable=0;whiteSpace=wrap;html=1;" vertex="1" parent="dJpMslKiDyshbMu2dqWY-43">
          <mxGeometry y="160" width="280" height="30" as="geometry" />
        </mxCell>
        <mxCell id="dJpMslKiDyshbMu2dqWY-48" value="Views" style="swimlane;fontStyle=0;childLayout=stackLayout;horizontal=1;startSize=40;horizontalStack=0;resizeParent=1;resizeParentMax=0;resizeLast=0;collapsible=1;marginBottom=0;whiteSpace=wrap;html=1;" vertex="1" parent="dJpMslKiDyshbMu2dqWY-42">
          <mxGeometry x="320" y="40" width="240" height="160" as="geometry">
            <mxRectangle x="210" y="210" width="60" height="30" as="alternateBounds" />
          </mxGeometry>
        </mxCell>
        <mxCell id="dJpMslKiDyshbMu2dqWY-49" value="Class DashboardView(TemplateView)" style="text;strokeColor=none;fillColor=none;align=left;verticalAlign=middle;spacingLeft=4;spacingRight=4;overflow=hidden;points=[[0,0.5],[1,0.5]];portConstraint=eastwest;rotatable=0;whiteSpace=wrap;html=1;" vertex="1" parent="dJpMslKiDyshbMu2dqWY-48">
          <mxGeometry y="40" width="240" height="30" as="geometry" />
        </mxCell>
        <mxCell id="dJpMslKiDyshbMu2dqWY-50" value="class ProfileView(TemplateView)" style="text;strokeColor=none;fillColor=none;align=left;verticalAlign=middle;spacingLeft=4;spacingRight=4;overflow=hidden;points=[[0,0.5],[1,0.5]];portConstraint=eastwest;rotatable=0;whiteSpace=wrap;html=1;" vertex="1" parent="dJpMslKiDyshbMu2dqWY-48">
          <mxGeometry y="70" width="240" height="30" as="geometry" />
        </mxCell>
        <mxCell id="dJpMslKiDyshbMu2dqWY-51" value="class SaveProfileView(View):" style="text;strokeColor=none;fillColor=none;align=left;verticalAlign=middle;spacingLeft=4;spacingRight=4;overflow=hidden;points=[[0,0.5],[1,0.5]];portConstraint=eastwest;rotatable=0;whiteSpace=wrap;html=1;" vertex="1" parent="dJpMslKiDyshbMu2dqWY-48">
          <mxGeometry y="100" width="240" height="30" as="geometry" />
        </mxCell>
        <mxCell id="dJpMslKiDyshbMu2dqWY-52" value="Path(&#39;stripe&#39;) =&amp;gt; stripeApi.url" style="text;strokeColor=none;fillColor=none;align=left;verticalAlign=middle;spacingLeft=4;spacingRight=4;overflow=hidden;points=[[0,0.5],[1,0.5]];portConstraint=eastwest;rotatable=0;whiteSpace=wrap;html=1;" vertex="1" parent="dJpMslKiDyshbMu2dqWY-48">
          <mxGeometry y="130" width="240" height="30" as="geometry" />
        </mxCell>
      </root>
    </mxGraphModel>
  </diagram>
</mxfile>
